<?xml version="1.0" encoding="UTF-8"?>
<!DOCTYPE svg PUBLIC "-//W3C//DTD SVG 1.1//EN" "http://www.w3.org/Graphics/SVG/1.1/DTD/svg11.dtd">
<!-- Creator: CorelDRAW 2020 (64-Bit) -->
<svg xmlns="http://www.w3.org/2000/svg" xml:space="preserve" width="2126px" height="1772px" version="1.1" shape-rendering="geometricPrecision" text-rendering="geometricPrecision" image-rendering="optimizeQuality" fill-rule="evenodd" clip-rule="evenodd"
viewBox="0 0 2126 1771.67"
 xmlns:xlink="http://www.w3.org/1999/xlink"
 xmlns:xodm="http://www.corel.com/coreldraw/odm/2003">
 <g id="Capa_x0020_1">
  <metadata id="CorelCorpID_0Corel-Layer"/>
  <g id="_1386062267344">
   <g>
    <path fill="#2C2A2C" fill-rule="nonzero" d="M1027.01 1220.59c-7.17,3.74 -14.65,6.44 -22.45,8.1 -7.8,1.67 -15.76,2.5 -23.87,2.5 -8.63,0 -16.59,-1.35 -23.86,-4.05 -7.28,-2.7 -13.57,-6.58 -18.88,-11.62 -5.3,-5.05 -9.43,-11.16 -12.4,-18.33 -2.96,-7.17 -4.44,-15.18 -4.44,-24.02 0,-8.83 1.48,-16.84 4.44,-24.02 2.97,-7.17 7.1,-13.28 12.4,-18.32 5.31,-5.04 11.6,-8.92 18.88,-11.62 7.27,-2.7 15.23,-4.06 23.86,-4.06 8.84,0 16.98,1.07 24.41,3.2 7.43,2.14 13.96,5.79 19.57,11l-17.15 18.71c-3.33,-3.43 -7.07,-6.03 -11.24,-7.8 -4.15,-1.77 -9.35,-2.65 -15.59,-2.65 -5.2,0 -9.9,0.88 -14.11,2.65 -4.21,1.77 -7.83,4.24 -10.84,7.41 -3.02,3.18 -5.33,6.94 -6.94,11.31 -1.62,4.36 -2.42,9.1 -2.42,14.19 0,5.2 0.8,9.96 2.42,14.27 1.61,4.32 3.92,8.06 6.94,11.23 3.01,3.18 6.63,5.65 10.84,7.41 4.21,1.77 8.91,2.65 14.11,2.65 5.31,0 9.88,-0.59 13.73,-1.79 3.84,-1.2 6.91,-2.42 9.2,-3.66l0 -17.94 -19.81 0 0 -22.46 43.2 0 0 57.71z"/>
    <polygon fill="#2C2A2C" fill-rule="nonzero" points="1092.99,1117.96 1168.01,1117.96 1168.01,1140.42 1117.32,1140.42 1117.32,1161.01 1165.2,1161.01 1165.2,1183.47 1117.32,1183.47 1117.32,1205.93 1170.81,1205.93 1170.81,1228.38 1092.99,1228.38 "/>
    <polygon fill="#2C2A2C" fill-rule="nonzero" points="1233.98,1117.96 1267.05,1117.96 1313.99,1194.7 1314.3,1194.7 1314.3,1117.96 1338.63,1117.96 1338.63,1228.38 1306.81,1228.38 1258.62,1149.78 1258.31,1149.78 1258.31,1228.38 1233.98,1228.38 "/>
    <polygon fill="#2C2A2C" fill-rule="nonzero" points="1405.7,1117.96 1480.71,1117.96 1480.71,1140.42 1430.03,1140.42 1430.03,1161.01 1477.9,1161.01 1477.9,1183.47 1430.03,1183.47 1430.03,1205.93 1483.52,1205.93 1483.52,1228.38 1405.7,1228.38 "/>
    <path fill="#2C2A2C" fill-rule="nonzero" d="M1571.02 1163.66l14.34 0c2.19,0 4.5,-0.08 6.94,-0.24 2.45,-0.15 4.66,-0.62 6.63,-1.4 1.98,-0.78 3.62,-2 4.92,-3.66 1.3,-1.67 1.95,-4.01 1.95,-7.02 0,-2.81 -0.57,-5.05 -1.71,-6.71 -1.16,-1.66 -2.61,-2.93 -4.37,-3.82 -1.77,-0.88 -3.8,-1.48 -6.09,-1.79 -2.29,-0.31 -4.52,-0.47 -6.7,-0.47l-15.91 0 0 25.11zm-24.34 -45.7l42.74 0c5.62,0 10.94,0.55 15.99,1.64 5.04,1.09 9.46,2.91 13.26,5.46 3.79,2.55 6.8,5.98 9.04,10.29 2.24,4.32 3.35,9.7 3.35,16.14 0,7.8 -2.03,14.43 -6.08,19.89 -4.06,5.46 -9.98,8.92 -17.78,10.37l28.08 46.63 -29.17 0 -23.08 -44.14 -12.01 0 0 44.14 -24.34 0 0 -110.42z"/>
    <path fill="#2C2A2C" fill-rule="nonzero" d="M1737.12 1150.09l-13.41 34.31 26.98 0 -13.57 -34.31zm-9.36 -32.13l20.12 0 48.04 110.42 -27.46 0 -9.51 -23.39 -42.89 0 -9.2 23.39 -26.82 0 47.72 -110.42z"/>
    <polygon fill="#2C2A2C" fill-rule="nonzero" points="1851.6,1117.96 1875.93,1117.96 1875.93,1205.93 1921,1205.93 1921,1228.38 1851.6,1228.38 "/>
    <path fill="#2C2A2C" fill-rule="nonzero" d="M937.44 1291.35l82.52 0c16.11,0 29.18,13.07 29.18,29.19l0 359.53c0,16.12 -13.07,29.18 -29.18,29.18l-111.71 0 0 -388.71c0,-16.12 13.07,-29.19 29.19,-29.19z"/>
    <path fill="#2C2A2C" fill-rule="nonzero" d="M1213.91 1691.05c-35.43,-18.51 -63.19,-44.38 -83.27,-77.61 -20.11,-33.23 -30.16,-70.94 -30.16,-113.13 0,-42.18 10.05,-79.9 30.16,-113.14 20.08,-33.22 47.84,-59.1 83.27,-77.61 35.42,-18.51 75.23,-27.76 119.4,-27.76 40.6,0 76.81,7.17 108.65,21.49 31.84,14.34 58.11,35.03 78.81,62.09l-56.48 50.42c-16.87,15.06 -41.8,15.39 -59.87,1.79 -19.29,-14.51 -40.6,-21.76 -63.95,-21.76 -29.45,0 -53.13,9.46 -71.04,28.35 -17.91,18.91 -26.87,44.29 -26.87,76.13 0,31.84 8.96,57.21 26.87,76.11 17.91,18.91 41.59,28.36 71.04,28.36 23.35,0 44.66,-7.25 63.95,-21.76 18.07,-13.59 43,-13.27 59.87,1.79l56.48 50.42c-20.7,27.07 -46.97,47.75 -78.81,62.08 -31.84,14.33 -68.05,21.49 -108.65,21.49 -44.17,0 -83.98,-9.25 -119.4,-27.75z"/>
    <path fill="#2C2A2C" fill-rule="nonzero" d="M1650.31 1690.75c-35.83,-18.7 -63.88,-44.68 -84.18,-77.91 -20.29,-33.23 -30.44,-70.75 -30.44,-112.53 0,-41.79 10.15,-79.31 30.44,-112.54 20.3,-33.22 48.35,-59.2 84.18,-77.91 35.83,-18.7 76.21,-28.06 121.2,-28.06 44.96,0 85.36,9.36 121.18,28.06 35.83,18.71 63.88,44.69 84.18,77.91 20.29,33.23 30.45,70.75 30.45,112.54 0,41.78 -10.16,79.3 -30.45,112.53 -20.3,33.23 -48.35,59.21 -84.18,77.91 -35.82,18.7 -76.22,28.05 -121.18,28.05 -44.99,0 -85.37,-9.35 -121.2,-28.05z"/>
    <path fill="#2C2A2C" fill-rule="nonzero" d="M485.99 1621.35l0 -286.46c0,-15.55 12.65,-28.2 28.2,-28.2l157.65 0c8.7,0 17.14,0.37 25.32,1.05 -46.67,149.77 -137.86,251.78 -211.17,313.61zm353.01 -255.97c-15.52,-23.88 -37.62,-42.19 -66.27,-54.92 -28.65,-12.74 -62.29,-19.1 -100.89,-19.1l-157.65 0c-24.05,0 -43.54,19.49 -43.54,43.53l0 374.37 96.69 0c24.41,0 44.2,-19.8 44.2,-44.21l0 -58.48 60.3 0c38.6,0 72.24,-6.36 100.89,-19.11 28.65,-12.73 50.75,-31.04 66.27,-54.91 15.52,-23.89 23.28,-51.74 23.28,-83.59 0,-31.84 -7.76,-59.69 -23.28,-83.58z"/>
   </g>
   <path fill="#2C2A2C" fill-rule="nonzero" d="M782.36 1191.24c-29.01,-8.46 -60.46,-12.97 -80.29,-15.2 -6.53,-0.73 -15.25,-6.62 -16.61,-17.31l-16.4 -263.16 170.52 -79.47 -192.16 1.08 -65.06 -187.58 12.14 167.18 -134.83 -139.32 127.13 239.79 -18.82 261.79c-1.1,9.51 -9.49,16.11 -16.48,17.02 -19.77,2.58 -50.7,6.72 -79.71,15.18 -47,13.71 -55.55,51.65 -55.55,51.65 0,0 36.81,-29.12 84,-29.12l253.67 0c47.19,0 84,29.12 84,29.12 0,0 -8.55,-37.94 -55.55,-51.65z"/>
   <path fill="#2C2A2C" fill-rule="nonzero" d="M284.55 547.49c-32.85,0 -60.62,11.16 -76.05,33.72l0 0c-32.29,47.2 1.49,126.69 75.3,177.18 75.53,51.67 154.43,62.34 206.72,62.34 36.79,0 60.4,-5.28 60.4,-5.28 0,0 -21.32,-140.25 -149.99,-228.27 -38.54,-26.37 -80.49,-39.69 -116.38,-39.69zm0 25.56c32.06,0 69.22,12.84 101.94,35.23 49.03,33.53 87.3,79.03 113.76,135.22 9.22,19.6 15.33,37.18 19.24,50.46 -8.12,0.69 -17.91,1.21 -28.97,1.21 -49.12,0 -122.36,-10.04 -192.28,-57.88 -31.27,-21.38 -56.18,-50.07 -68.35,-78.72 -14.45,-34 -6.38,-54.02 -0.29,-62.92 13.45,-19.66 40.2,-22.6 54.95,-22.6z"/>
   <path fill="#2C2A2C" fill-rule="nonzero" d="M947.22 539.25c-37.41,0 -80.5,12.18 -121.08,36.73 -146.83,88.83 -178.87,241.66 -178.87,241.66 0,0 35.96,10.19 89.88,10.19 56.31,0 132.19,-11.1 207.2,-56.48 84.22,-50.96 126.23,-136.24 93.64,-190.1l0 0c-16.88,-27.92 -50.54,-42 -90.77,-42zm0 25.56c32.38,0 57.5,10.82 68.9,29.67 6.42,10.61 14.43,34.03 -4.08,71.61 -15.57,31.62 -44.32,61.23 -80.93,83.39 -72.1,43.62 -145.28,52.78 -193.96,52.78 -23.33,0 -43.1,-2.05 -57.48,-4.22 5.1,-14.74 13.2,-34.92 25.36,-57.42 32.75,-60.61 77.95,-108.65 134.35,-142.77 35.21,-21.3 73.51,-33.04 107.84,-33.04z"/>
   <path fill="#2C2A2C" fill-rule="nonzero" d="M610.8 732.06c-7.68,13.06 -14.69,23.91 -20.4,32.29 -19.48,-16.74 -51.13,-46.57 -84.53,-88.99 -31.91,-40.52 -58.82,-84.16 -79.99,-129.68 -26.41,-56.79 -43.91,-116.74 -52.03,-178.17 -9.65,-73.08 -0.66,-143.88 25.31,-199.38 24.19,-51.69 60,-83.13 100.84,-88.52 4.18,-0.56 8.43,-0.84 12.64,-0.84 39.18,0 79.46,23.85 113.42,67.16 11.77,15.01 22.33,31.85 31.58,50.08 5.4,-7.98 11.02,-15.59 16.81,-22.88 -40.44,-73.2 -100.04,-119.92 -161.81,-119.92 -5.32,0 -10.64,0.35 -15.99,1.06l0 0 0 0c-102.94,13.59 -169.4,155.61 -148.14,316.59 37.06,280.62 246.76,430.17 246.76,430.17 0,0 11.07,-13.47 26.79,-38.29 -3.63,-9.21 -7.44,-19.46 -11.26,-30.68z"/>
   <path fill="#2C2A2C" fill-rule="nonzero" d="M647.28 817.59c0.14,-0.68 3.08,-14.25 10.87,-35.34 -10.93,-23.75 -27.73,-65.13 -40.72,-119.08 -12.33,-51.18 -18.7,-103.12 -18.94,-154.37 -0.29,-63.94 9.02,-127 27.67,-187.44 19.4,-62.85 52.26,-119.52 92.54,-159.58 37.81,-37.61 79.68,-58.32 117.87,-58.32 10.12,0 20.05,1.47 29.5,4.36l0.24 0.07c40.32,12.45 71.09,50.3 86.65,106.58 16.67,60.33 13.62,133.17 -8.58,205.1 -13.85,44.87 -32.77,88.02 -56.43,128.82 11.28,-3.36 22.43,-5.75 33.29,-7.26 18.41,-34.45 34.72,-72.39 47.57,-114.02 48.84,-158.25 6.24,-312.4 -94.96,-343.64l0 0 -0.01 0c-12.17,-3.76 -24.66,-5.57 -37.27,-5.57 -92.24,0 -191.87,96.71 -234.84,235.92 -85.14,275.87 45.54,503.77 45.54,503.77l0.01 0z"/>
   <path fill="#2C2A2C" fill-rule="nonzero" d="M944.28 771.39c-10.21,6.17 -20.44,11.69 -30.63,16.66 24.61,6.78 46.79,17.83 63.11,31.76 25.93,22.13 27.53,41.82 26.18,51.58 -4.42,31.93 -50.43,56.01 -107.03,56.01 -9.49,0 -19.19,-0.68 -28.83,-2.01 -55.11,-7.63 -106.22,-29.77 -151.89,-65.81 -15.22,-12.01 -27.29,-23.67 -36.04,-32.98 1.23,-0.73 2.52,-1.49 3.84,-2.26 -22.46,-2.94 -35.72,-6.69 -35.72,-6.69 0,0 0.07,-0.34 0.21,-0.97 -4.07,2.9 -6.23,4.65 -6.23,4.65 0,0 76.89,109.25 222.32,129.38 10.99,1.52 21.82,2.25 32.34,2.25 69.4,0 125.94,-31.74 132.35,-78.06l0 -0.01c5.68,-40.98 -29.54,-81.61 -83.98,-103.5z"/>
   <path fill="#2C2A2C" fill-rule="nonzero" d="M1226.23 302.12l0 0 0 0c-27.99,-31.44 -69.68,-46.57 -117.54,-46.57 -37.39,0 -78.55,9.24 -119.92,27.12 0.35,9.19 0.37,18.55 0.05,28.05 40.75,-19.12 82.1,-29.6 119.87,-29.6 29.48,0 70.49,6.59 98.44,38 28.39,31.9 35.21,80.77 19.2,137.6 -17.15,60.89 -57.89,122.27 -114.71,172.83 -28.08,25 -56.94,46.2 -85.87,64.21 -12.92,20.49 -30.87,40.37 -52.99,57.87 51.83,-24.5 105.09,-57.79 155.86,-102.98 124.92,-111.18 168.71,-266.64 97.61,-346.53z"/>
   <path fill="#2C2A2C" fill-rule="nonzero" d="M506.02 820.4c-10.61,8.26 -24.21,17.89 -40.59,27.49 -56.11,32.85 -116.1,49.5 -178.3,49.5l-0.7 0c-39.82,-0.08 -78.47,-10.28 -106.04,-27.99 -32.97,-21.18 -37.85,-43.68 -37.83,-55.2 0.02,-11.5 4.98,-33.93 37.9,-54.96 20.14,-12.85 45.32,-21.52 72.9,-25.37 -7.58,-7.15 -14.48,-14.61 -20.66,-22.26 -67.09,14.34 -115.6,54.82 -115.7,102.54l0 0c-0.12,59.81 75.86,108.62 169.39,108.81l0.74 0c155.92,0 255.27,-99.22 263.19,-107.38 -3.11,0.64 -19.4,3.8 -44.3,4.82z"/>
  </g>
 </g>
</svg>
