<?xml version="1.0" encoding="UTF-8"?>
<!DOCTYPE svg PUBLIC "-//W3C//DTD SVG 1.1//EN" "http://www.w3.org/Graphics/SVG/1.1/DTD/svg11.dtd">
<!-- Creator: CorelDRAW 2020 (64-Bit) -->
<svg xmlns="http://www.w3.org/2000/svg" xml:space="preserve" width="200px" height="200px" version="1.1" shape-rendering="geometricPrecision" text-rendering="geometricPrecision" image-rendering="optimizeQuality" fill-rule="evenodd" clip-rule="evenodd"
viewBox="0 0 2126 1771.67"
 xmlns:xlink="http://www.w3.org/1999/xlink"
 xmlns:xodm="http://www.corel.com/coreldraw/odm/2003">
 <g id="Capa_x0020_1">
  <metadata id="CorelCorpID_0Corel-Layer"/>
  <g id="_1386161181344">
   <path fill="#FFFFFF" fill-rule="nonzero" d="M1155.87 1429.09c-29.01,-8.46 -60.47,-12.98 -80.29,-15.2 -6.54,-0.73 -15.25,-6.63 -16.61,-17.32l-16.41 -263.15 170.53 -79.47 -192.17 1.07 -65.05 -187.58 12.13 167.19 -134.83 -139.33 127.14 239.79 -18.82 261.8c-1.11,9.51 -9.49,16.11 -16.48,17.02 -19.78,2.57 -50.7,6.72 -79.71,15.18 -47,13.71 -55.56,51.64 -55.56,51.64 0,0 36.82,-29.11 84.01,-29.11l253.67 0c47.19,0 84,29.11 84,29.11 0,0 -8.56,-37.93 -55.55,-51.64z"/>
   <path fill="#FFFFFF" fill-rule="nonzero" d="M658.06 785.33c-32.85,0 -60.62,11.17 -76.05,33.73l0 0c-32.29,47.2 1.49,126.69 75.3,177.18 75.53,51.67 154.43,62.34 206.72,62.34 36.79,0 60.39,-5.28 60.39,-5.28 0,0 -21.31,-140.26 -149.99,-228.28 -38.54,-26.36 -80.48,-39.69 -116.37,-39.69zm0 25.56c32.06,0 69.21,12.84 101.94,35.23 49.03,33.54 87.3,79.04 113.75,135.23 9.23,19.6 15.34,37.17 19.25,50.45 -8.13,0.7 -17.91,1.21 -28.97,1.21 -49.12,0 -122.36,-10.04 -192.29,-57.87 -31.26,-21.39 -56.17,-50.08 -68.34,-78.73 -14.45,-33.99 -6.39,-54.01 -0.29,-62.92 13.45,-19.66 40.2,-22.6 54.95,-22.6z"/>
   <path fill="#FFFFFF" fill-rule="nonzero" d="M1320.73 777.1c-37.41,0 -80.5,12.17 -121.08,36.72 -146.83,88.84 -178.88,241.67 -178.88,241.67 0,0 35.97,10.18 89.88,10.18 56.31,0 132.19,-11.09 207.21,-56.48 84.22,-50.95 126.23,-136.23 93.64,-190.1l0 0c-16.89,-27.91 -50.54,-41.99 -90.77,-41.99zm0 25.56c32.38,0 57.49,10.81 68.9,29.67 6.42,10.61 14.43,34.03 -4.08,71.61 -15.58,31.62 -44.32,61.23 -80.93,83.38 -72.11,43.63 -145.28,52.79 -193.97,52.79 -23.32,0 -43.09,-2.05 -57.47,-4.22 5.1,-14.75 13.19,-34.92 25.35,-57.42 32.75,-60.62 77.95,-108.65 134.35,-142.77 35.21,-21.3 73.51,-33.04 107.85,-33.04z"/>
   <path fill="#FFFFFF" fill-rule="nonzero" d="M984.31 969.91c-7.69,13.05 -14.7,23.91 -20.4,32.28 -19.48,-16.73 -51.13,-46.57 -84.53,-88.98 -31.91,-40.52 -58.82,-84.16 -79.99,-129.68 -26.41,-56.8 -43.92,-116.74 -52.03,-178.17 -9.65,-73.08 -0.66,-143.89 25.31,-199.38 24.18,-51.69 60,-83.13 100.84,-88.53 4.17,-0.55 8.42,-0.83 12.64,-0.83 39.18,0 79.46,23.85 113.41,67.15 11.77,15.01 22.34,31.86 31.58,50.09 5.41,-7.98 11.03,-15.59 16.81,-22.88 -40.43,-73.2 -100.04,-119.92 -161.8,-119.92 -5.32,0 -10.65,0.35 -15.99,1.05l0 0 0 0c-102.95,13.6 -169.4,155.62 -148.15,316.59 37.06,280.63 246.76,430.18 246.76,430.18 0,0 11.08,-13.47 26.8,-38.29 -3.64,-9.21 -7.44,-19.46 -11.26,-30.68z"/>
   <path fill="#FFFFFF" fill-rule="nonzero" d="M1020.78 1055.44c0.15,-0.68 3.09,-14.26 10.88,-35.35 -10.94,-23.75 -27.73,-65.12 -40.73,-119.07 -12.33,-51.18 -18.7,-103.12 -18.93,-154.37 -0.3,-63.94 9.01,-127 27.67,-187.44 19.39,-62.86 52.26,-119.53 92.54,-159.58 37.81,-37.61 79.67,-58.32 117.87,-58.32 10.12,0 20.04,1.46 29.5,4.36l0.24 0.07c40.32,12.45 71.09,50.3 86.64,106.57 16.67,60.34 13.63,133.18 -8.57,205.11 -13.85,44.86 -32.77,88.02 -56.43,128.81 11.28,-3.35 22.42,-5.75 33.29,-7.26 18.4,-34.44 34.72,-72.38 47.57,-114.01 48.83,-158.25 6.24,-312.41 -94.97,-343.64l0 -0.01 0 0c-12.17,-3.76 -24.66,-5.56 -37.27,-5.56 -92.25,0 -191.87,96.7 -234.84,235.92 -85.14,275.87 45.54,503.77 45.54,503.77l0 0z"/>
   <path fill="#FFFFFF" fill-rule="nonzero" d="M1317.78 1009.24c-10.21,6.17 -20.44,11.69 -30.63,16.66 24.62,6.78 46.79,17.83 63.12,31.76 25.93,22.12 27.52,41.81 26.18,51.57 -4.43,31.93 -50.43,56.01 -107.03,56.01 -9.5,0 -19.2,-0.67 -28.83,-2.01 -55.12,-7.62 -106.22,-29.77 -151.89,-65.8 -15.22,-12.02 -27.29,-23.67 -36.05,-32.98 1.23,-0.74 2.52,-1.49 3.85,-2.26 -22.47,-2.95 -35.72,-6.69 -35.72,-6.69 0,0 0.06,-0.34 0.21,-0.97 -4.07,2.9 -6.23,4.65 -6.23,4.65 0,0 76.89,109.25 222.32,129.38 10.98,1.52 21.81,2.25 32.34,2.25 69.4,0 125.93,-31.75 132.35,-78.07l0 0c5.67,-40.98 -29.55,-81.62 -83.99,-103.5z"/>
   <path fill="#FFFFFF" fill-rule="nonzero" d="M1599.74 539.97l0 0 -0.01 0c-27.99,-31.44 -69.67,-46.57 -117.53,-46.57 -37.39,0 -78.56,9.24 -119.93,27.12 0.35,9.19 0.37,18.54 0.05,28.04 40.76,-19.11 82.11,-29.6 119.88,-29.6 29.47,0 70.48,6.6 98.44,38 28.38,31.9 35.2,80.77 19.19,137.61 -17.15,60.88 -57.88,122.26 -114.7,172.83 -28.09,25 -56.94,46.2 -85.88,64.2 -12.92,20.5 -30.86,40.38 -52.99,57.88 51.83,-24.51 105.09,-57.79 155.86,-102.98 124.93,-111.19 168.72,-266.64 97.62,-346.53z"/>
   <path fill="#FFFFFF" fill-rule="nonzero" d="M879.52 1058.25c-10.6,8.25 -24.21,17.89 -40.59,27.48 -56.11,32.85 -116.1,49.51 -178.3,49.51l-0.69 0c-39.82,-0.08 -78.47,-10.28 -106.04,-27.99 -32.97,-21.18 -37.86,-43.68 -37.83,-55.2 0.02,-11.5 4.97,-33.93 37.9,-54.96 20.14,-12.86 45.31,-21.52 72.89,-25.38 -7.58,-7.15 -14.47,-14.61 -20.65,-22.26 -67.09,14.35 -115.61,54.83 -115.71,102.55l0 0c-0.12,59.8 75.87,108.61 169.39,108.8l0.74 0c155.93,0 255.28,-99.21 263.19,-107.38 -3.1,0.65 -19.4,3.81 -44.3,4.83z"/>
  </g>
 </g>
</svg>
