<?xml version="1.0" encoding="UTF-8" standalone="no"?>
<!-- Creator: CorelDRAW 2020 (64-Bit) -->

<svg
title = "Mapita"
id="mapita"

   xml:space="preserve"

   version="1.1"
   shape-rendering="geometricPrecision"
   text-rendering="geometricPrecision"
   image-rendering="optimizeQuality"
   fill-rule="even"
   opacity="odd"
   clip-rule="evenodd"
   viewBox="0 0 2008 2244.24"
   id="svg48"
   xmlns="http://www.w3.org/2000/svg"
   xmlns:svg="http://www.w3.org/2000/svg"><defs
   id="defs52" />

<defs>
 <style type="text/css">
         
        svg path{
        fill: teal;
        stroke: white;

        width: 10%;
        
        transition: fill 0.3s;
        background-color:white;
        }
        path:hover{
    fill:tomato;
}


</style>
</defs>
 <g
   id="Capa_x0020_1">
  <metadata
   id="CorelCorpID_0Corel-Layer" />
  <path id="1"
   fill="#91387E"
   opacity="0.49"
   stroke="#FEFEFE"
   stroke-width="16.67"
   stroke-miterlimit="22.9256"
   d="M147.58 122.04c120.58,13.21 241.15,26.23 361.73,39.25 120.57,13.01 241.15,26.03 361.89,39.05 0,96.53 0,193.06 0,289.38 -10.79,-0.8 -21.41,-1.8 -32.37,-2.6 -5.14,-0.4 -28.77,-1.8 -31.85,-2.8 -73.82,-6.21 -147.84,-11.89 -221.46,-18.03l-221.11 -18.42 0 466.61 -122.97 -3.99 -81.7 -4.42 0 -459.8 -12.16 -1.21c0,-107.54 0,-215.28 0,-323.02z"
   id="path3" />
  <path id="2"
   fill="#91387E"
   opacity="0.45"
   stroke="#FEFEFE"
   stroke-width="16.67"
   stroke-miterlimit="22.9256"
   d="M1731.32 293.26c42.82,4.61 85.81,9.21 128.8,13.82 0,0.8 0,1.4 0,2 0,0.4 0,1 0,1.41 -74.16,67.89 -148.15,136.58 -222.14,206.47 -14.04,13.01 -28.09,25.83 -42.13,38.85 -13.53,-5.61 -26.89,-11.82 -40.42,-17.82 -2.57,-0.81 -4.97,-1.61 -7.37,-2.21 -2.74,0 -5.48,-0.2 -8.22,-0.2 -18.32,0 -36.31,3.01 -54.46,4.61 -86.49,-7.01 -172.81,-14.02 -259.13,-21.23 -6.85,-0.4 -13.53,-1 -20.21,-1.4 0,-93.73 0,-187.25 0,-280.97 50.69,5.4 101.39,10.81 152.08,16.42 124.35,13.42 248.69,26.83 373.2,40.25z"
   id="path5" />
  <path id="3"
   fill="#91387E"
   opacity="0.62"
   stroke="#FEFEFE"
   stroke-width="16.67"
   stroke-miterlimit="22.9256"
   d="M1466.03 1160.01c-17.3,17.22 -34.43,34.64 -51.56,52.07 -4.79,2.4 -9.59,5.21 -14.21,7.41 -11.14,2.8 -22.27,5.4 -33.4,8.01 -1.03,-0.6 -2.06,-1.4 -3.08,-2.2 -67.83,-71.7 -135.65,-144.2 -203.3,-217.49 -0.17,0 -0.34,-0.2 -0.34,-0.4 -0.52,-0.6 -0.86,-0.8 -1.2,-1.2 -0.17,0 -0.17,-0.2 -0.17,-0.41 53.6,-55.07 107.21,-109.54 160.99,-163.61 1.71,-1.6 3.43,-3.41 5.31,-5.01 1.2,1.2 2.4,2.61 3.77,3.81 17.81,19.42 35.79,38.85 53.78,58.27 -0.52,0.4 -1.03,1.01 -1.37,1.41 -0.35,0.4 -0.52,0.6 -0.69,0.8 -26.72,26.03 -57.89,52.27 -81.35,81.3 0.51,0.4 1.03,1.01 1.54,1.61 2.74,2.8 5.48,5.8 8.39,8.61 0,0.2 0,0.4 0.17,0.4 52.24,56.07 104.48,111.75 156.72,166.62z"
   id="path7" />
  <path id="4"
   fill="#91387E"
   opacity="0.62"
   stroke="#FEFEFE"
   stroke-width="16.67"
   stroke-miterlimit="22.9256"
   d="M1701.69 1080.9c50.53,1.61 101.22,3.21 151.92,4.81 0,74.9 0,150 0,224.7 0,74.7 0,149.59 0,224.29 -126.91,1.61 -253.99,3.31 -380.73,5.01 -126.74,1.7 -253.83,3.41 -380.57,5.01 1.2,-0.8 2.4,-1.8 3.77,-3.01 75.36,-79.5 150.59,-158.1 226.25,-235.11 75.06,-76.39 151.06,-151.4 226.59,-225.5 1.88,-1.4 3.77,-3 5.65,-4.8 48.99,1.6 97.97,3 147.12,4.6z"
   id="path9" />
  <path id="5"
   fill="#91387E"
   opacity="0.47"
   stroke="#FEFEFE"
   stroke-width="16.67"
   stroke-miterlimit="22.9256"
   d="M1636.61 1537.31c74.5,-1 149.01,-2.01 223.68,-3.01 0,80.91 0,162.02 0,242.93 0,80.7 0,161.61 0,242.32 -89.57,5.6 -178.98,11.01 -268.38,16.62 -74.33,4.4 -148.83,9.01 -222.99,13.62 -74.17,4.6 -148.5,9.01 -222.66,13.61 -27.91,1.61 -55.83,3.41 -83.75,5.21 -1.2,-3.2 -2.22,-6.81 -3.25,-10.01 -23.81,-79.71 -47.82,-159.61 -71.59,-239.72 -23.84,-80.3 -47.96,-161.21 -71.94,-242.72 -0.85,-2.8 -1.54,-5.61 -2.22,-8.61 3.76,-6.81 7.7,-13.82 11.64,-20.63 72.96,-1.2 146.1,-2 219.23,-3 82.04,-1.2 164.08,-2.31 246.12,-3.41 82.03,-1.1 164.07,-2 246.11,-3.2z"
   id="path11" />
  <path id="6"
   fill="#91387E"
   opacity="0.54"
   stroke="#FEFEFE"
   stroke-width="16.67"
   stroke-miterlimit="22.9256"
   d="M1031 1228.1c43.67,47.26 87.35,93.92 131.19,140.38 4.45,4.81 9.08,9.42 13.7,14.02 8.74,9.42 17.47,18.63 26.21,27.64 0.17,0.4 0.34,0.6 0.68,0.8 0.86,0.8 1.72,1.8 2.57,2.6 0.17,3.81 0.34,7.41 0.69,10.82 -0.17,1 -0.35,1.6 -0.35,2.4 -24.32,26.44 -49.49,52.47 -74.33,78.91 -4.62,3.8 -9.25,7.21 -13.87,10.81 -6.17,4 -12.33,8.01 -18.33,11.82 -4.96,1.8 -9.76,3.8 -14.55,5.6 -0.52,0.2 -1.03,0 -1.37,0 -0.18,0 -0.35,0 -0.52,0 -51.21,0.8 -102.25,0.6 -153.46,0.6 -4.28,0 -8.56,-0.2 -12.67,-0.4 -4.28,0.2 -8.57,0.2 -12.85,0.2 -6.51,-22.23 -13.18,-44.86 -19.35,-67.28 -1.71,-6.01 -3.42,-12.02 -5.14,-18.23 -0.51,-2.2 -0.85,-4.4 -1.2,-6.81 -7.02,-42.45 -5.65,-31.04 -4.11,-72.89 0.35,-2.01 0.86,-4.01 1.37,-6.41 1.72,-8.61 3.6,-17.23 5.48,-26.04 8.74,-23.03 12.16,-32.44 24.15,-53.87 32.03,-44.26 46.76,-66.69 81.36,-102.73 0.85,1 1.71,1.8 2.74,2.6 13.01,14.22 26.03,28.44 39.05,42.45 0,0.41 0.17,0.61 0.34,0.81 0.85,0.8 1.71,1.4 2.57,2.2z"
   id="path13" />D
  <path id="7"
   fill="#91387E"
   opacity="0.64"
   stroke="#FEFEFE"
   stroke-width="16.67"
   stroke-miterlimit="22.9256"
   d="M380.85 1063.88c16.96,0.4 33.92,1 51.04,1.4 22.61,0.8 45.39,1.41 68.17,2.01 0,106.34 0,212.68 0,318.82 0,1.2 0,2.2 0,3.2 0,1 0,2 0,3.01 0,1 0,2 0,3 0,1.2 0,2.2 0,3.2 0,0.8 0,1.81 0,2.81 0,1.2 0,2.2 0,3.2 0,1 0,1.8 0,2.81 0,1.2 0,2.2 0,3.2 0,1.2 0,2 0,3 0,1.01 0,2.01 0,3.01 0,1.2 0,2.2 0,3.2 0,1.2 0,2.21 0,3.21 0,1 0,2 0,2.8 0,1.2 0,2.2 0,3.2 0,1.01 0,2.01 0,2.81 0,1.2 0,2.2 0,3.2 0,1 0,1.8 0,2.61 0,2.4 0,4.8 0,7.01 -0.17,0.8 -0.34,1.4 -0.51,2 -22.95,19.02 -45.91,38.05 -68.86,57.07 -1.02,1 -2.05,1.81 -3.08,2.61 -1.03,0.8 -1.71,1.4 -2.91,2.2 -8.56,7.21 -17.13,14.42 -25.69,21.63 -3.77,3 -3.43,2.6 -8.56,4.4 -15.25,6.21 -30.32,12.22 -45.39,18.43 -2.57,1.4 -3.25,1.8 -5.48,1.8 -1.03,0 -2.06,0 -2.91,0.2 -58.92,0.8 -117.84,1.4 -176.75,2.2 0,-29.84 0,-59.48 0,-89.51 0,-27.24 0,-54.48 0,-81.91 0,-125.77 0,-251.74 0,-377.5 0,-34.05 0,-68.09 0,-102.14 67.65,2.81 135.47,5.61 203.29,8.41 0,-25.43 0,-51.06 0,-76.7 0,-9.01 0,-18.22 0,-27.43 5.83,0.2 11.65,0.6 17.64,0.8 0,20.42 0,40.65 0,60.88 0,7.21 0,14.42 0,21.63 0,25.63 0,51.06 0,76.7 0,31.24 0,62.48 0,93.52z"
   id="path15" />
  <path id="8"
   fill="#91387E"
   opacity="0.51"
   stroke="#FEFEFE"
   stroke-width="16.67"
   stroke-miterlimit="22.9256"
   d="M498.18 764.89c0,17.42 0,34.84 0,52.06 -39.23,-2 -78.45,-4 -117.67,-6 0,84.51 0,169.02 0,253.33 39.74,1.4 79.47,2.41 119.21,3.61 0,63.68 0,127.36 0,191.25 0.51,-0.4 1.2,-1 1.88,-1.6 83.58,-91.52 168.36,-188.45 253.14,-273.16 0.51,-0.4 1.2,-1.21 1.88,-2.01 5.14,-5.2 10.28,-10.81 15.42,-16.42 0,0 0,0 0.17,-0.2 1.37,-1.4 2.74,-2.8 4.11,-4.2 0.34,-0.4 0.68,-0.8 1.03,-1.21 0.34,-0.4 0.68,-0.6 1.2,-1 0,-0.2 0.17,-0.4 0.34,-0.6 0.51,-0.6 1.02,-1 1.71,-1.8 0.34,-0.4 0.69,-0.8 1.2,-1 0.34,-0.4 0.68,-1 1.2,-1.6 -0.52,-0.6 -1.03,-1.21 -1.37,-1.61 -1.37,-1.4 -2.74,-3 -4.11,-4.6 0,0 0,-0.2 0,-0.4 -0.17,0 -0.17,0 -0.17,-0.2 -53.95,-62.28 -111.5,-126.57 -166.31,-190.45 -0.34,-0.2 -0.68,-0.6 -0.85,-1.01 -3.26,-3.8 -6.51,-7.2 -9.59,-11.21 -0.35,-0.2 -0.52,-0.4 -0.69,-0.6 -0.34,-0.4 -0.69,-0.8 -0.86,-1.2 -0.34,-0.2 -0.68,-0.6 -0.85,-1 -0.52,-0.4 -1.03,-0.81 -1.37,-1.41 -0.17,0 -0.17,0 -0.17,-0.2 -1.03,-1 -1.89,-2.2 -2.74,-3.4 -0.86,-0.6 -1.72,-1.4 -2.57,-1.8 -24.15,7.81 -48.3,15.22 -72.28,23.23 -7.02,2 -14.04,4.2 -20.89,6.41z"
   id="path17" />
  <path id="9"
   fill="#91387E"
   opacity="0.76"
   stroke="#FEFEFE"
   stroke-width="16.67"
   stroke-miterlimit="22.9256"
   d="M376.06 811.35c40.76,2 81.7,4.2 122.63,6.21 0,-17.23 0,-34.65 0,-52.07 28.09,-9.01 56.18,-18.03 84.26,-26.84 2.92,-1 5.83,-1.8 8.91,-3 63.2,73.29 122.8,141.38 184.8,212.08 0.17,0.4 0.34,0.8 0.69,1 0.68,1 1.54,1.6 2.39,2.6 1.03,1 2.06,2.01 3.26,3.01 0.85,-0.6 1.71,-1.61 2.57,-2.41 6.16,-6.41 12.33,-13.01 18.67,-19.42 42.81,-44.46 85.63,-88.92 128.45,-132.58 6.16,-6.21 12.33,-12.61 18.67,-19.02 0.68,-1 1.54,-2.01 2.4,-3.21 -55.67,-63.08 -111.33,-126.96 -166.82,-191.25 0.34,-0.2 0.68,-0.8 1.03,-1.4 0.34,-0.4 0.85,-0.8 1.37,-1.2 0.17,-0.2 0.34,-0.4 0.68,-0.8 1.88,-2.01 3.77,-3.81 5.65,-6.01 21.07,-18.83 42.82,-43.06 63.2,-63.49 0,0 0.17,-0.2 0.34,-0.4 3.26,-3 6.51,-6.41 9.94,-9.61 0.17,-0.4 0.51,-1 0.85,-1.6 -78.95,-6.41 -157.92,-12.82 -236.69,-19.23 -78.8,-6.41 -157.91,-13.01 -236.87,-19.22 -0.51,1 -1.03,2.2 -1.37,3.2 -6.17,11.82 -12.33,23.63 -18.33,35.45 -0.17,7.21 -0.34,14.22 -0.34,21.03 0,96.12 -0.34,192.25 -0.34,288.18z"
   id="path19" />
  <path id="10"
   fill="#91387E"
   opacity="0.79"
   stroke="#FEFEFE"
   stroke-width="16.67"
   stroke-miterlimit="22.9256"
   d="M782.83 954.34c1.02,2.4 4.62,5.6 6.33,7.81 15.25,17.22 30.66,34.24 46.08,51.46 0.34,0.41 0.34,0.41 0.68,0.81 0.69,0.8 0.86,1.2 1.71,2 4.46,5.01 8.91,10.21 13.53,15.02 0.86,1 0.86,1 1.55,2 0.17,0 0.34,0.2 0.34,0.2 10.27,11.62 20.55,22.83 30.83,34.25 0,0 0,0 0,0 4.62,5.2 9.25,10.41 14.04,15.62 0,0 0.17,0 0.17,0.2 0,0 0.17,0.2 0.17,0.2 0,0.2 0.17,0.2 0.52,0.6 0.34,0.2 0.34,0.2 0.68,0.4 0.52,0.6 0.34,0.4 0.69,1 0.51,0.6 1.02,1.2 1.54,1.8 0,0 0,0.2 0.17,0.2 2.74,3.21 5.48,6.21 8.39,9.02 0,0.2 0,0.2 0.17,0.2 1.03,1.4 2.23,2.6 3.43,4 5.14,6.01 10.45,11.62 15.41,17.02 8.22,9.22 16.27,17.83 24.5,26.84 1.88,2 3.76,4.2 5.65,6.01 0,0.2 0.17,0.4 0.17,0.6 4.11,4.4 8.39,9.01 12.67,13.62 1.03,1 1.89,2 2.91,3.2 0.52,0.6 0.35,0.4 0.86,0.8 0.51,0.6 0.17,0.4 0.69,1 1.19,1 0.34,0.6 1.88,1.4 0.51,-0.4 0.85,-0.6 1.37,-1 2.4,-2.6 4.8,-5.2 7.19,-7.81 0.35,-0.4 0.17,-0.2 0.69,-0.4 1.88,-2 3.94,-4.2 5.99,-6.41 0.52,-0.6 0.17,-0.4 0.69,-1 0.34,-0.2 0.68,-0.6 1.03,-1 0.17,0 0.17,-0.2 0.34,-0.2 0.17,-0.4 0.34,-0.4 0.51,-0.8 2.91,-2.8 5.82,-5.81 8.91,-9.01 1.88,-2 3.42,-3.61 5.31,-5.61 3.76,-3.6 7.19,-7.21 10.79,-11.01 0.51,-0.61 61.48,-63.09 63.88,-66.29 1.88,-2.41 4.11,-4.21 6,-6.21 0.34,-0.4 0.34,-0.4 0.68,-0.8 0.51,-0.4 0.86,-1 1.37,-1.2 1.88,-2.01 3.94,-4.21 6,-6.41 0.34,-0.4 0.34,-0.4 0.51,-0.6 0.51,-0.4 0.34,-0.2 0.85,-0.6 0.18,-0.2 0.18,-0.2 0.69,-0.8 2.91,-3.01 5.99,-6.21 9.08,-9.22 0,0 0.17,-0.2 0.17,-0.2 1.03,-1 2.05,-2.2 3.25,-3.4 0.17,-0.2 0.35,-0.2 0.35,-0.4 4.62,-4.61 9.24,-9.21 13.87,-14.02 6.68,-6.01 12.67,-12.62 18.84,-19.03 0.85,-1 2.05,-1.8 2.4,-3 -1.89,-3 -39.22,-42.86 -45.73,-50.27 -1.54,-1.8 -3.09,-3.4 -4.46,-5.2 -0.85,-0.8 -0.68,-0.6 -1.54,-1.81 -2.57,-2.6 -5.14,-5.4 -7.53,-8.21 -0.69,-0.6 -1.03,-1 -1.54,-1.6 -0.35,-0.6 -0.35,-0.4 -0.69,-0.8 0,0 -0.17,-0.2 -0.34,-0.4 -11.31,-12.42 -22.44,-24.63 -33.57,-37.05 -0.34,-0.4 -0.34,-0.4 -0.69,-1 -0.34,-0.2 -0.51,-0.2 -0.85,-0.6 -1.37,-1.6 -2.74,-3.21 -4.11,-4.81 0,0 0,-0.2 0,-0.2 -7.2,-7.81 -14.39,-15.82 -21.58,-23.83 -0.35,-0.4 -0.52,-0.4 -0.86,-0.8 -2.4,-2.8 -4.8,-5.41 -7.19,-8.21 -0.35,-0.4 -0.18,-0.2 -0.35,-0.6 -15.41,-16.82 -30.82,-34.05 -46.24,-51.27 -2.91,-3.2 -16.27,-19.02 -18.5,-20.63 -1.54,0.4 -9.42,9.22 -10.61,10.42 -25.01,25.63 -50.02,51.26 -75.02,76.9 -14.22,14.42 -28.26,29.44 -42.48,44.06 -7.53,7.81 -14.9,15.42 -21.92,23.23 -0.86,0.8 -1.54,1.4 -2.23,2.2 -0.34,0.2 -0.17,0.2 -0.51,0.6 -5.14,5.41 -10.28,10.82 -15.41,16.22 -0.18,0 -0.18,0.2 -0.18,0.2 0,0 -0.17,-0.2 -0.17,0 -0.34,0.4 -0.68,0.8 -1.02,1 -0.69,0.4 -0.69,0.61 -1.2,1.61z"
   id="path21" />
  <path id="11"
   fill="#91387E"
   opacity="0.65"
   stroke="#FEFEFE"
   stroke-width="16.67"
   stroke-miterlimit="22.9256"
   d="M1065.08 524.57c47.79,54.67 95.91,108.34 143.53,162.01 0.51,0.8 1.19,1.4 1.88,2 0.17,0.41 0.34,0.61 0.68,0.81 1.2,1.6 2.57,3.2 3.94,4.6 -0.85,1.2 -1.71,2.21 -2.57,3.01 -0.85,1 -1.71,1.8 -2.56,2.6 -1.89,1.8 -3.6,3.4 -5.31,5.21 -50.87,50.06 -101.4,102.53 -153.12,152.6 -0.17,0.2 -0.34,0.4 -0.51,0.6 -3.26,3.2 -6.51,6.61 -9.59,9.81 -0.35,0.2 -0.52,0.4 -0.69,0.4 -0.17,0.4 -0.34,0.6 -0.51,0.8 -1.03,1.01 -2.06,1.81 -2.91,2.81 -0.69,-0.6 -1.2,-0.8 -1.72,-1.4 -0.17,-0.21 -0.34,-0.6 -0.51,-0.81 -0.34,-0.19 -0.52,-0.4 -0.69,-0.6 -2.39,-2.6 -4.79,-5.4 -7.19,-8.21 -0.17,0 -0.17,0 -0.17,-0.2 -51.55,-57.47 -102.59,-116.35 -154.49,-174.43 -0.17,0 -0.34,-0.4 -0.34,-0.6 -0.86,-0.8 -1.71,-1.8 -2.4,-2.8 5.14,-5.41 10.45,-10.62 15.76,-16.02 46.07,-46.67 92.49,-92.53 138.39,-138.59 3.08,-2.2 6.16,-4.8 9.24,-7.41 1.72,-0.4 3.43,-0.8 5.31,-1.4 2.57,-0.4 5.14,-1 7.88,-1.6 0.17,0.2 0.35,0.2 0.52,0.2 3.94,0.2 9.07,0.4 12.84,1.2 1.71,2 3.43,3.61 5.31,5.41 0,0 0,0 0,0z"
   id="path23" />
  <path id="12"
   fill="#91387E"
   opacity="0.42"
   stroke="#FEFEFE"
   stroke-width="16.67"
   stroke-miterlimit="22.9256"
   d="M995.37 530.78c3.94,0.4 8.05,0.6 12.16,0.8 2.92,1.6 5.83,3.2 8.91,4.4 -0.86,1.01 -1.71,2.01 -2.57,3.21 -44.7,43.45 -88.72,88.31 -133.08,132.97 -0.34,0.4 -0.68,0.8 -0.85,1.21 -2.74,2.6 -5.31,5.2 -7.88,7.81 -0.17,0.2 -0.34,0.4 -0.51,0.4 -0.52,0.6 -1.03,1 -1.55,1.4 -27.4,-31.24 -54.8,-62.69 -82.03,-94.33 -0.18,-0.2 -0.35,-0.4 -0.52,-0.6 -0.51,-0.6 -0.85,-1 -1.2,-1.6 1.03,-1.2 2.23,-2.6 3.43,-4 22.26,-22.43 51.21,-48.67 72.79,-73.3 1.88,-2 3.94,-4.01 5.99,-6.21 0.51,-0.2 1.03,-0.6 1.54,-1 2.23,2.4 4.63,4.8 7.03,7.01 4.11,0.4 8.22,0.6 12.5,1.2 14.56,1.2 29.11,2.4 43.84,3.6 5.14,1.61 10.28,3.41 15.59,5.01 17.3,5.41 28.43,8.61 46.41,12.02z"
   id="path25" />
  <path id="13"
   fill="#91387E"
   opacity="0.74"
   stroke="#FEFEFE"
   stroke-width="16.67"
   stroke-miterlimit="22.9256"
   d="M1214.6 694.39c1.88,3.01 3.94,6.21 5.99,9.01 0.52,1.01 1.03,2.01 1.72,2.81 17.47,36.25 20.38,45.46 27.57,87.31 1.03,25.24 -0.34,40.86 -4.62,65.09 -2.92,9.01 -5.83,18.22 -8.57,27.04 -4.28,8.81 -8.39,17.62 -12.5,26.03 -23.98,25.03 -47.95,49.87 -71.76,75.1 -2.06,2 -4.11,3.8 -6,5.61 -1.02,-1 -1.88,-2.01 -2.74,-2.81 -0.17,0 -0.17,0 -0.17,-0.2 -0.68,-0.8 -1.37,-1.4 -2.05,-2.2 -34.77,-38.05 -69.54,-76.5 -104.31,-115.15 0.35,-0.4 0.69,-1.2 1.03,-2 0.69,-0.41 1.37,-1.01 2.06,-1.81 0.34,-0.4 0.68,-0.8 1.2,-1.2 0.34,-0.4 0.68,-0.8 1.02,-1.2 53.44,-53.87 107.05,-107.54 160.66,-160.41 0.17,-0.2 0.34,-0.4 0.68,-0.8 0.34,-0.2 0.69,-0.6 1.03,-1.01 0.34,-0.2 0.85,-0.6 1.37,-1 2.74,-2.6 5.48,-5.4 8.39,-8.21z"
   id="path27" />
  <path id="14"
   fill="#91387E"
   opacity="0.75"
   stroke="#FEFEFE"
   stroke-width="16.67"
   stroke-miterlimit="22.9256"
   d="M976.02 1168.42c-1.37,1.6 -2.57,3.2 -3.77,4.61 -0.17,0.2 -0.34,0.2 -0.34,0.2 0,0 0,0 0,0 -1.2,1.6 -2.23,2.8 -3.26,3.8 -0.51,0.4 -1.02,1.2 -1.36,1.6 -2.06,2.01 -4.12,4.21 -6,6.01 -1.03,1.2 -2.05,2.2 -2.91,3.41 -42.48,48.66 -87.69,116.15 -127.25,170.42 -0.69,1.2 -1.2,1.8 -1.72,2.6 -1.02,1.61 -2.05,3.21 -3.08,4.81 -0.86,-0.6 -1.54,-1 -2.23,-1.4 -5.82,-6.41 -11.64,-12.82 -17.47,-19.23 -59.94,-70.09 -124.17,-137.38 -186.51,-206.87 -0.17,-0.2 -0.34,-0.4 -0.51,-0.6 0,0 0,0 0,-0.2 -1.2,-1 -2.4,-2.2 -3.43,-3.61 -0.34,-0.2 -0.51,-0.6 -0.68,-1 0.17,-0.6 0.51,-1.2 0.85,-1.8 0,0 0,0 0.17,0 0,0 0.17,0.2 0.35,0 0,0 0,-0.2 0.17,-0.4 2.05,-2.2 4.11,-4.41 6.16,-6.61 0.34,-0.4 0.69,-0.8 1.2,-1.4 0.34,-0.2 0.69,-0.8 1.2,-1.4 0.17,-0.2 0.34,-0.2 0.69,-0.6 0,0 0,0 0.17,0 50.52,-54.27 100.7,-108.15 151.06,-161.22 0,0 0.17,-0.2 0.34,-0.4 0.17,-0.2 0.34,-0.4 0.69,-0.6 0.34,-0.6 0.85,-1.2 1.36,-1.6 0,0 0.18,0 0.35,-0.2 0.34,-0.4 0.85,-1 1.37,-1.4 0,0 0,0 0.17,-0.2 0,0 0,0 0.17,-0.2 0.17,-0.2 0.51,-0.4 0.86,-0.8 0.85,1 1.88,2 2.91,2.8 0,0.2 0,0.4 0,0.4 63.71,70.69 127.08,141.39 190.28,211.08z"
   id="path29" />
  <path id="15"
   fill="#91387E"
   opacity="0.65"
   stroke="#FEFEFE"
   stroke-width="16.67"
   stroke-miterlimit="22.9256"
   d="M704.9 1232.5c40.42,44.66 80.67,88.92 120.92,132.98 -1.72,2.8 -3.43,5.41 -5.14,7.81 -2.74,3.81 -5.48,7.61 -8.22,11.02 -0.69,1 -1.37,2 -1.89,2.8 -0.51,0.6 -0.85,1.2 -1.2,1.6 -18.84,26.44 -37.85,52.87 -56.52,79.31 -1.02,-0.6 -2.05,-1.41 -2.91,-2.41 -16.95,-18.42 -33.91,-36.65 -50.69,-55.07 -25.18,27.64 -50.53,55.87 -76.05,83.91 -2.57,2.81 -5.14,5.61 -7.7,8.21 -0.52,-0.4 -1.03,-0.8 -1.55,-1.4 -25.17,-27.64 -50.35,-55.67 -75.7,-83.71 -2.22,-2.2 -4.28,-4.81 -6.33,-7.41 0.17,-0.4 0.51,-0.6 0.85,-1.2 55.15,-61.48 110.47,-122.96 166.13,-182.44 1.89,2 3.94,4.2 6,6z"
   id="path31" />
  <path id="16"
   fill="#91387E"
   opacity="0.44"
   stroke="#FEFEFE"
   stroke-width="16.67"
   stroke-miterlimit="22.9256"
   d="M499.89 1445.99c1.03,-0.4 1.37,-1 2.05,-1.81 1.72,-1.8 3.43,-4 5.14,-6.2 2.23,-2.21 4.45,-4.21 6.51,-6.81 0.86,-1 1.71,-2.01 2.57,-2.81 0.51,-0.6 0.68,-0.8 1.03,-1.4 32.2,-35.85 64.39,-71.49 96.59,-107.14 0.17,0 0.35,-0.2 0.52,-0.4 0.34,-0.4 0.68,-1 1.2,-1.6 -0.52,-0.8 -1.03,-1.6 -1.55,-2.41 -0.34,-0.4 -0.34,-0.4 -0.68,-0.6 -18.67,-20.62 -41.11,-48.06 -81.53,-90.92 -5.99,4.41 -25.69,27.84 -30.65,33.45 -0.86,1 -1.03,1 -1.2,2.4 0,57.28 0,114.75 0,172.03 0,0.8 0,1.4 0,2 0,0.8 0,1.6 0,2.2 0,0.8 0,1.41 0,2.01 0,0.6 0,1.2 0,1.8 0,0.8 0,1.6 0,2.2 0,0.8 0,1.4 0,2 0,0.61 0,1.41 0,2.01z"
   id="path33" />
  <path id="17"
   fill="#91387E"
   opacity="0.26"
   stroke="#FEFEFE"
   stroke-width="16.67"
   stroke-miterlimit="22.9256"
   d="M1206.04 236.39c-111.67,-12.22 -223.34,-24.24 -335.01,-36.25 0,95.93 0,191.85 0,287.58 25.01,2.2 50.18,4.2 75.36,6.21 2.4,1 4.8,1.6 7.19,2.2 0.69,0.4 1.55,0.6 2.4,1 17.13,4.81 34.43,9.42 51.72,14.22 2.75,0.2 5.49,0.4 8.23,0.6 1.88,0 3.76,-0.2 5.65,-0.4 23.8,-3.4 47.61,-7.01 71.59,-10.61 1.54,-0.4 3.08,-0.6 4.79,-1 27.24,2.4 30.66,4 57.04,11.81 9.25,1.2 18.5,2.61 27.92,4.01 7.7,0.4 15.41,1.2 23.12,1.8 0,-93.73 0,-187.45 0,-281.17z"
   id="path35" />
  <path id="18"
   fill="#91387E"
   opacity="0.69"
   stroke="#FEFEFE"
   stroke-width="16.67"
   stroke-miterlimit="22.9256"
   d="M983.56 1177.43c0.17,0.4 0.34,0.8 0.51,1 0.86,0.8 1.71,1.81 2.74,2.61 71.25,77.3 143.35,154.2 214.94,229.9 3.6,1.2 7.2,2.4 10.97,3.61 0.51,-0.2 1.02,0 1.71,0 1.2,0 2.4,-0.2 3.77,0 2.22,-1.81 4.45,-3.41 6.85,-5.21 0.68,-0.8 1.54,-1.8 2.4,-2.6 41.44,-44.06 82.72,-87.72 124.17,-131.18 3.08,-7.01 6.16,-14.22 9.42,-21.63 1.37,-7.21 2.91,-14.62 4.45,-21.83 -2.06,-4.2 -4.11,-8.21 -6.17,-12.21 -1.02,-1 -2.05,-2.21 -2.91,-3.01 -0.51,-0.8 -1.03,-1.2 -1.54,-1.8 -1.88,-1.8 -3.6,-3.6 -5.31,-5.61 -0.34,0 -0.51,-0.2 -0.68,-0.4 -0.35,-0.2 -0.52,-0.6 -0.69,-1 -59.09,-62.48 -118,-125.36 -176.92,-189.45 -0.34,-0.2 -0.69,-0.4 -0.86,-0.6 -4.45,-4.81 -8.9,-9.61 -13.19,-14.42 -1.02,-0.8 -2.05,-1.8 -2.91,-2.8 -49.84,49.86 -98.65,100.93 -148.15,152.6 -4.79,5.01 -9.59,10.21 -14.38,15.02 -0.17,0.2 -0.17,0.2 -0.17,0.2 -2.74,2.8 -5.48,5.81 -8.05,8.81z"
   id="path37" />
  <path id="19"
   fill="#91387E"
   opacity="0.46"
   stroke="#FEFEFE"
   stroke-width="16.67"
   stroke-miterlimit="22.9256"
   d="M339.58 1554.73c-59.95,0.8 -119.89,1.6 -179.66,2.4 0,94.73 0,189.05 0,283.58 0,94.32 0,188.85 0,283.17 150.37,-9.21 300.75,-18.42 451.12,-27.63 150.38,-9.22 300.92,-18.43 451.47,-27.64 -24.83,-82.51 -49.67,-165.42 -74.5,-248.93 -24.84,-83.51 -49.67,-167.62 -74.5,-252.13 -11.82,-41.66 -23.64,-83.51 -35.46,-125.57 -1.37,-24.23 -2.74,-48.46 -4.11,-72.89 2.23,-10.62 4.46,-21.63 6.85,-32.45 4.29,-11.21 8.57,-22.63 13.02,-34.04 3.6,-6.61 7.36,-13.02 11.13,-19.83 22.27,-30.84 44.7,-64.28 70.22,-91.52 3.6,-3.6 7.2,-7.21 10.79,-11.01 -3.59,-3.41 -7.19,-7.01 -10.79,-10.42 -21.06,26.04 -42.13,51.67 -63.02,77.7 -28.78,39.06 -57.55,78.51 -86.32,117.96 -24.33,34.25 -48.64,68.49 -72.97,102.54 -17.98,-19.03 -35.79,-38.25 -53.6,-57.48 -27.92,30.44 -55.84,61.28 -83.75,92.12 -28.09,-30.24 -56.18,-60.48 -84.1,-91.32 -10.62,11.82 -21.24,23.63 -31.85,35.25 -33.57,27.83 -67.14,55.47 -100.54,83.51 -19.87,8.21 -39.74,16.62 -59.43,24.63z"
   id="path39" />
  <path id="20"
   fill="#91387E"
   opacity="0.44"
   stroke="#FEFEFE"
   stroke-width="16.67"
   stroke-miterlimit="22.9256"
   d="M1139.07 524.57c116.64,9.61 233.61,18.82 350.25,28.64 13.19,-1.61 26.37,-3.21 39.73,-5.01 6.17,-0.6 6,-0.4 10.96,-0.2 4.29,0 8.57,-0.2 12.85,0 1.03,0 2.05,0.2 3.08,0.2 0.86,0.2 1.72,0.4 2.74,0.6 4.46,1.2 8.57,2.6 12.68,4.01 0,0.2 0,0.2 0,0.2 -0.35,4 -7.71,29.84 -8.57,33.84 -0.68,2.4 -1.2,6.41 -2.74,8.01 -1.88,1.8 -3.59,3.41 -5.31,5.01 -0.85,0.6 -1.02,1 -1.71,2 -101.22,93.92 -201.24,192.05 -301.61,291.19 -1.2,1.2 -5.99,6.6 -7.19,6.8 0.17,-1.6 1.2,-3.2 1.71,-4.4 0.69,-1.6 1.2,-2.8 1.89,-4.41 0.68,-1.6 1.2,-2.6 1.88,-4.4 1.2,-3.81 2.57,-7.81 3.94,-11.82 12.16,-42.25 10.96,-64.08 4.8,-107.14 -0.35,-1.8 -0.86,-3.6 -1.38,-5.21 -1.88,-8.41 -2.91,-11.61 -5.48,-19.42 -0.34,-1.4 -0.51,-1.6 -1.02,-2.41 -0.17,-0.8 -0.35,-1.6 -0.69,-2.4 -4.62,-12.82 -9.59,-22.83 -15.93,-34.44 -2.57,-4.01 -4.96,-7.81 -7.36,-11.82 -2.4,-4.01 -2.4,-3.8 -5.48,-7.21 -45.05,-50.47 -90.43,-100.93 -135.31,-152.4 -1.02,-1.4 -9.93,-11.02 -10.27,-12.42 21.23,1.8 41.96,3.01 63.54,4.61z"
   id="path41" />
  <path id="21"
   fill="#91387E"
   opacity="0.63"
   stroke="#FEFEFE"
   stroke-width="16.67"
   stroke-miterlimit="22.9256"
   d="M698.9 1226.5c-27.91,-31.04 -55.66,-62.09 -83.4,-93.53 -27.92,30.24 -55.84,60.48 -83.76,90.92 27.58,31.24 55.15,62.09 82.9,92.73 28.09,-30.04 56.18,-60.28 84.26,-90.12z"
   id="path43" />
  <path id=22
   id="polygon45"
   fill="#91387e"
   opacity="0.42"
stroke="#fefefe"
stroke-width="16.67"
stroke-miterlimit="22.9256"

   d="m 1843.92,1071.38 -1.79,-703.22 -503,469.27 53.93,57.78 -77.59,79.59 156.88,166.25 77.67,-76.85 z" />
 </g>
</svg>
